<svg viewBox="0 0 200 150" xmlns="http://www.w3.org/2000/svg">
  <defs>
    <!-- Spring variant gradient -->
    <linearGradient id="springGrad" x1="0%" y1="0%" x2="100%" y2="100%">
      <stop offset="0%" style="stop-color:#E8F5E8;stop-opacity:1" />
      <stop offset="100%" style="stop-color:#F0E8FF;stop-opacity:1" />
    </linearGradient>
  </defs>
  
  <!-- Background shape -->
  <path d="M 10,10 C 20,0 180,0 190,10 L 190,130 C 180,145 20,145 10,130 Z" fill="url(#springGrad)" opacity="0.3"/>
  
  <!-- Enhanced botanical accents with spring colors -->
  <path d="M 20 140 C 60 80, 80 40, 100 20 C 120 40, 140 80, 180 140" stroke="#7CB95F" stroke-width="2" fill="none" opacity="0.6"/>
  <path d="M 30 140 C 70 90, 85 50, 100 20 C 115 50, 130 90, 170 140" stroke="#8DC26F" stroke-width="1.5" fill="none" opacity="0.5"/>
  <path d="M 25 140 C 65 85, 82 45, 100 20 C 118 45, 135 85, 175 140" stroke="#9ED17F" stroke-width="1" fill="none" opacity="0.4"/>
  
  <!-- Left bloom - Coral Pink -->
  <g transform="translate(45 55)">
    <circle cx="0" cy="0" r="15" fill="#FF8A80"/>
    <path d="M -15 15 C -15 45, 15 45, 15 15" fill="#FF8A80" />
    <!-- Highlight -->
    <circle cx="-5" cy="-3" r="3" fill="#FFFFFF" opacity="0.4"/>
  </g>
  
  <!-- Center bloom - Lavender -->
  <g transform="translate(100 50)">
    <circle cx="0" cy="0" r="20" fill="#B39DDB"/>
    <path d="M -20 20 C -20 60, 20 60, 20 20" fill="#B39DDB" />
    <!-- Highlights -->
    <circle cx="-7" cy="-5" r="4" fill="#FFFFFF" opacity="0.4"/>
    <circle cx="5" cy="-8" r="2.5" fill="#FFFFFF" opacity="0.3"/>
  </g>
  
  <!-- Right bloom - Sage Green -->
  <g transform="translate(155 55)">
    <circle cx="0" cy="0" r="15" fill="#A5D6A7"/>
    <path d="M -15 15 C -15 45, 15 45, 15 15" fill="#A5D6A7" />
    <!-- Highlight -->
    <circle cx="-4" cy="-4" r="3" fill="#FFFFFF" opacity="0.4"/>
  </g>
  
  <!-- Decorative elements -->
  <circle cx="35" cy="35" r="1.5" fill="#7CB95F" opacity="0.5"/>
  <circle cx="165" cy="40" r="1" fill="#8DC26F" opacity="0.4"/>
  <circle cx="75" cy="25" r="1.2" fill="#9ED17F" opacity="0.4"/>
</svg> 