<svg viewBox="0 0 200 150" xmlns="http://www.w3.org/2000/svg">
  <defs>
    <linearGradient id="grad1" x1="0%" y1="0%" x2="100%" y2="100%">
      <stop offset="0%" style="stop-color:#F7D7DA;stop-opacity:1" />
      <stop offset="100%" style="stop-color:#D7E6F2;stop-opacity:1" />
    </linearGradient>
  </defs>
  
  <!-- Background shape -->
  <path d="M 10,10 C 20,0 180,0 190,10 L 190,130 C 180,145 20,145 10,130 Z" fill="url(#grad1)" opacity="0.2"/>
  
  <!-- Botanical Accent -->
  <path d="M 20 140 C 60 80, 80 40, 100 20 C 120 40, 140 80, 180 140" stroke="#A7C6A1" stroke-width="2" fill="none" opacity="0.5"/>
  <path d="M 30 140 C 70 90, 85 50, 100 20 C 115 50, 130 90, 170 140" stroke="#A7C6A1" stroke-width="1.5" fill="none" opacity="0.4"/>
  
  <!-- Figures -->
  <g transform="translate(45 55)">
    <circle cx="0" cy="0" r="15" fill="#D3B88C"/>
    <path d="M -15 15 C -15 45, 15 45, 15 15" fill="#D3B88C" />
  </g>
  
  <g transform="translate(100 50)">
    <circle cx="0" cy="0" r="20" fill="#EBA6A9"/>
    <path d="M -20 20 C -20 60, 20 60, 20 20" fill="#EBA6A9" />
  </g>
  
  <g transform="translate(155 55)">
    <circle cx="0" cy="0" r="15" fill="#C8B9D6"/>
    <path d="M -15 15 C -15 45, 15 45, 15 15" fill="#C8B9D6" />
  </g>
</svg> 