<svg viewBox="0 0 800 600" xmlns="http://www.w3.org/2000/svg">
  <defs>
    <!-- Enhanced gradient for background -->
    <linearGradient id="bgGradient" x1="0%" y1="0%" x2="100%" y2="100%">
      <stop offset="0%" style="stop-color:#F7D7DA;stop-opacity:1" />
      <stop offset="50%" style="stop-color:#E8CAE0;stop-opacity:1" />
      <stop offset="100%" style="stop-color:#D7E6F2;stop-opacity:1" />
    </linearGradient>
    
    <!-- Enhanced gradients for the blooms -->
    <radialGradient id="bloom1" cx="50%" cy="30%" r="70%">
      <stop offset="0%" style="stop-color:#E8C4A0;stop-opacity:1" />
      <stop offset="100%" style="stop-color:#D3B88C;stop-opacity:1" />
    </radialGradient>
    
    <radialGradient id="bloom2" cx="50%" cy="30%" r="70%">
      <stop offset="0%" style="stop-color:#F4B6B9;stop-opacity:1" />
      <stop offset="100%" style="stop-color:#EBA6A9;stop-opacity:1" />
    </radialGradient>
    
    <radialGradient id="bloom3" cx="50%" cy="30%" r="70%">
      <stop offset="0%" style="stop-color:#D8C9E6;stop-opacity:1" />
      <stop offset="100%" style="stop-color:#C8B9D6;stop-opacity:1" />
    </radialGradient>
    
    <!-- Subtle texture pattern -->
    <pattern id="bloomTexture" patternUnits="userSpaceOnUse" width="20" height="20">
      <circle cx="5" cy="5" r="1" fill="#FFFFFF" opacity="0.3"/>
      <circle cx="15" cy="15" r="0.8" fill="#FFFFFF" opacity="0.2"/>
    </pattern>
  </defs>
  
  <!-- Background shape (scaled up) -->
  <path d="M 40,40 C 80,0 720,0 760,40 L 760,520 C 720,580 80,580 40,520 Z" fill="url(#bgGradient)" opacity="0.25"/>
  
  <!-- Enhanced botanical accents -->
  <path d="M 80 560 C 240 320, 320 160, 400 80 C 480 160, 560 320, 720 560" stroke="#A7C6A1" stroke-width="3" fill="none" opacity="0.6"/>
  <path d="M 120 560 C 280 360, 340 200, 400 80 C 460 200, 520 360, 680 560" stroke="#A7C6A1" stroke-width="2" fill="none" opacity="0.5"/>
  <path d="M 100 560 C 260 340, 330 180, 400 80 C 470 180, 540 340, 700 560" stroke="#B8D1B2" stroke-width="1.5" fill="none" opacity="0.4"/>
  
  <!-- Additional flowing stems -->
  <path d="M 200 500 Q 250 400, 300 350 Q 350 300, 400 250" stroke="#A7C6A1" stroke-width="1.5" fill="none" opacity="0.4"/>
  <path d="M 600 500 Q 550 400, 500 350 Q 450 300, 400 250" stroke="#A7C6A1" stroke-width="1.5" fill="none" opacity="0.4"/>
  
  <!-- Left bloom (enhanced) -->
  <g transform="translate(180 220)">
    <circle cx="0" cy="0" r="60" fill="url(#bloom1)"/>
    <circle cx="0" cy="0" r="60" fill="url(#bloomTexture)"/>
    <path d="M -60 60 C -60 180, 60 180, 60 60" fill="url(#bloom1)" />
    <path d="M -60 60 C -60 180, 60 180, 60 60" fill="url(#bloomTexture)" />
    <!-- Petal details -->
    <circle cx="-20" cy="-10" r="8" fill="#FFFFFF" opacity="0.4"/>
    <circle cx="15" cy="-15" r="6" fill="#FFFFFF" opacity="0.3"/>
  </g>
  
  <!-- Center bloom (enhanced and larger) -->
  <g transform="translate(400 200)">
    <circle cx="0" cy="0" r="80" fill="url(#bloom2)"/>
    <circle cx="0" cy="0" r="80" fill="url(#bloomTexture)"/>
    <path d="M -80 80 C -80 240, 80 240, 80 80" fill="url(#bloom2)" />
    <path d="M -80 80 C -80 240, 80 240, 80 80" fill="url(#bloomTexture)" />
    <!-- Petal details -->
    <circle cx="-25" cy="-15" r="10" fill="#FFFFFF" opacity="0.4"/>
    <circle cx="20" cy="-20" r="8" fill="#FFFFFF" opacity="0.3"/>
    <circle cx="0" cy="-30" r="6" fill="#FFFFFF" opacity="0.5"/>
  </g>
  
  <!-- Right bloom (enhanced) -->
  <g transform="translate(620 220)">
    <circle cx="0" cy="0" r="60" fill="url(#bloom3)"/>
    <circle cx="0" cy="0" r="60" fill="url(#bloomTexture)"/>
    <path d="M -60 60 C -60 180, 60 180, 60 60" fill="url(#bloom3)" />
    <path d="M -60 60 C -60 180, 60 180, 60 60" fill="url(#bloomTexture)" />
    <!-- Petal details -->
    <circle cx="-15" cy="-12" r="8" fill="#FFFFFF" opacity="0.4"/>
    <circle cx="20" cy="-8" r="6" fill="#FFFFFF" opacity="0.3"/>
  </g>
  
  <!-- Additional decorative elements -->
  <circle cx="150" cy="150" r="3" fill="#A7C6A1" opacity="0.6"/>
  <circle cx="650" cy="160" r="2.5" fill="#A7C6A1" opacity="0.5"/>
  <circle cx="300" cy="120" r="2" fill="#B8D1B2" opacity="0.4"/>
  <circle cx="500" cy="130" r="2.5" fill="#B8D1B2" opacity="0.4"/>
  
  <!-- Subtle sparkles -->
  <g opacity="0.6">
    <path d="M 250,180 L 255,185 L 250,190 L 245,185 Z" fill="#FFFFFF"/>
    <path d="M 550,170 L 554,174 L 550,178 L 546,174 Z" fill="#FFFFFF"/>
    <path d="M 380,150 L 383,153 L 380,156 L 377,153 Z" fill="#FFFFFF"/>
  </g>
</svg> 